<?xml version="1.0"?>
<svg version="1.1" xmlns="http://www.w3.org/2000/svg" width="400" height="200" style="border: dashed 2px #aaa"><path fill="#1d4ed8" d="M37.44,115.64l0-17l-1.02,2.55l-5.27,10.71l-2.72,0.17l-5.27-11.05l-0.85-2.38l0,17l3.23,0.68l0,2.04l-9.18,0l0-2.04l2.89-0.68l0-18.36l-2.89-0.68l0-1.87l7.65-0.17l6.154,13.6l6.426-13.43l7.14-0.17l0,2.04l-2.89,0.68l0,18.36l2.89,0.68l0,2.04l-9.52,0l0-2.04z M50.9924,94.73c0-1.53,1.02-2.38,2.21-2.38c1.36,0,2.21,0.68,2.21,2.38c0,1.53-1.19,2.38-2.21,2.38c-1.36,0-2.21-0.85-2.21-2.38z M57.6224,116.49l0,1.87l-8.84,0l0-1.87l2.89-0.85l0-12.58l-2.89-0.68l0-1.87l6.29-0.17l0,15.3z M71.1748,107.14l2.55-4.284l-1.53-0.476l0-1.87l7.48-0.17l0,2.04l-2.414,0.408l-0.034,0l-3.502,5.202l4.386,7.65l0.034,0l2.55,0.85l0,1.87l-4.59,0l-4.862-8.67l-2.958,0l0,5.95l2.21,0.85l0,1.87l-8.5,0l0-1.87l2.89-0.85l0-20.74l-2.89-0.68l0-1.87l6.29-0.17l0,14.96l2.89,0z M99.8572,109.86l-11.73,0c0,3.74,2.006,6.12,4.93,6.12c3.4,0,5.712-1.87,5.712-1.87l1.19,1.768s-3.162,2.822-7.242,2.822c-5.44,0-8.16-3.57-8.16-9.18c0-5.44,3.4-9.52,8.33-9.52s7.14,2.89,7.14,7.99c0,0.85-0.17,1.802-0.17,1.87z M88.2632,107.31l8.16,0c0-2.55-0.986-4.658-3.706-4.658s-4.25,2.108-4.454,4.658z M127.132,94.22c6.63,0,10.54,4.59,10.54,11.9c0,7.48-4.59,12.58-11.22,12.58s-10.37-4.25-10.37-12.07c0-7.48,4.25-12.41,11.05-12.41z M126.962,97.11c-4.42,0-6.97,2.89-6.97,9.35c0,6.12,2.21,9.35,6.63,9.35s7.14-3.06,7.14-9.52c0-6.12-2.38-9.18-6.8-9.18z M149.0144,100.34l0.306,2.414c0.816-0.714,3.502-2.754,6.324-2.754c3.74,0,5.44,2.38,5.44,6.12l0,9.52l2.55,0.85l0,1.87l-8.16,0l0-1.87l2.21-0.85l0-9.18c0-2.38-0.85-3.57-3.06-3.57c-2.89,0-4.93,2.72-4.93,2.72l0,10.03l2.21,0.85l0,1.87l-8.5,0l0-1.87l2.89-0.85l0-12.58l-2.89-0.68l0-1.87z M172.9368,102.72l4.08,11.9l3.74-11.73l-2.38-0.51l0-1.87l8.058-0.17l0,2.04l-2.21,0.34l-4.828,13.464c-1.802,4.726-3.57,10.336-9.18,10.336c-0.85,0-2.176-0.17-2.176-0.17l0.306-2.38l1.7,0c2.38,0,3.91-2.244,5.406-5.542l-6.086-15.538l-2.04-0.51l0-1.87l7.99-0.17l0,2.04z M205.5972,109.86l-11.73,0c0,3.74,2.006,6.12,4.93,6.12c3.4,0,5.712-1.87,5.712-1.87l1.19,1.768s-3.162,2.822-7.242,2.822c-5.44,0-8.16-3.57-8.16-9.18c0-5.44,3.4-9.52,8.33-9.52s7.14,2.89,7.14,7.99c0,0.85-0.17,1.802-0.17,1.87z M194.0032,107.31l8.16,0c0-2.55-0.986-4.658-3.706-4.658s-4.25,2.108-4.454,4.658z M219.6596,107.14l2.55-4.284l-1.53-0.476l0-1.87l7.48-0.17l0,2.04l-2.414,0.408l-0.034,0l-3.502,5.202l4.386,7.65l0.034,0l2.55,0.85l0,1.87l-4.59,0l-4.862-8.67l-2.958,0l0,5.95l2.21,0.85l0,1.87l-8.5,0l0-1.87l2.89-0.85l0-20.74l-2.89-0.68l0-1.87l6.29-0.17l0,14.96l2.89,0z M241.712,100c5.1,0,7.99,3.57,7.99,9.01c0,5.78-3.4,9.69-8.5,9.69s-8.16-3.06-8.16-9.18c0-5.78,3.57-9.52,8.67-9.52z M241.542,102.72c-3.4,0-4.93,2.21-4.93,6.63c0,4.08,1.36,6.63,4.76,6.63s4.76-2.38,4.76-6.8c0-3.74-1.19-6.46-4.59-6.46z M260.3644,100.34l0.306,2.414c0.816-0.714,3.502-2.754,6.324-2.754c3.74,0,5.44,2.38,5.44,6.12l0,9.52l2.55,0.85l0,1.87l-8.16,0l0-1.87l2.21-0.85l0-9.18c0-2.38-0.85-3.57-3.06-3.57c-2.89,0-4.93,2.72-4.93,2.72l0,10.03l2.21,0.85l0,1.87l-8.5,0l0-1.87l2.89-0.85l0-12.58l-2.89-0.68l0-1.87z M283.6068,102.72l2.89,12.58l4.454-14.79l3.23-0.51l4.216,15.3l2.72-12.41l-2.38-0.51l0-1.87l7.65-0.17l0,2.04l-1.972,0.34l-4.148,15.64l-3.91,0l-3.23-10.54l-0.816-3.264l-0.714,3.264l-3.23,10.54l-3.91,0l-4.25-15.47l-1.7-0.51l0-1.87l7.65-0.17l0,2.04z M330.1392,116.32l0,1.87l-5.61,0.17l-0.34-2.38c-0.816,0.714-3.502,2.72-6.29,2.72c-3.74,0-5.44-2.346-5.44-6.086l0-9.554l-2.89-0.68l0-1.87l6.29-0.17l0,11.934c0,2.38,0.85,3.536,3.06,3.536c2.89,0,4.93-2.686,4.93-2.686l0-10.064l-2.89-0.68l0-1.87l6.29-0.17l0,15.3z"/><path fill="#" d=""/></svg>
